<svg height="192" viewBox="0 0 165 192" width="165" xmlns="http://www.w3.org/2000/svg"><path d="m131.922 0a21 21 0 0 1 18.151 10.439l35.782 61.5a21 21 0 0 1 0 21.122l-35.782 61.5a21 21 0 0 1 -18.151 10.439h-71.844a21 21 0 0 1 -18.151-10.439l-35.783-61.5a21 21 0 0 1 0-21.122l35.782-61.5a21 21 0 0 1 18.152-10.439z" fill="#f4f6ff" transform="matrix(0 1 -1 0 165 0)"/><g fill="#8c35b1"><path d="m205.776 129.548c-6.671 0-12.1-4.18-12.1-9.319s5.427-9.319 12.1-9.319 12.1 4.18 12.1 9.319c0 2.059 2.166 3.728 4.839 3.728s4.839-1.669 4.839-3.728c0-7.968-7.252-14.651-16.937-16.351v-4.15c0-2.059-2.166-3.728-4.839-3.728s-4.839 1.669-4.839 3.728v4.15c-9.685 1.7-16.937 8.384-16.937 16.351 0 9.249 9.768 16.774 21.776 16.774 6.671 0 12.1 4.18 12.1 9.319s-5.427 9.319-12.1 9.319-12.1-4.18-12.1-9.319c0-2.059-2.166-3.728-4.839-3.728s-4.839 1.67-4.839 3.728c0 7.968 7.252 14.651 16.937 16.351v4.15c0 2.059 2.166 3.728 4.839 3.728s4.839-1.669 4.839-3.728v-4.15c9.685-1.7 16.937-8.384 16.937-16.351-.001-9.249-9.769-16.774-21.776-16.774z" transform="translate(-124 -63.83)"/><text font-family="Verdana-Bold, Verdana" font-size="17" font-weight="700" transform="translate(82 138.5)"><tspan x="-69.93" y="0">GOOD WALLET</tspan></text></g></svg>